<svg width="16" height="16" viewBox="0 0 16 16" fill="none" xmlns="http://www.w3.org/2000/svg">
<path d="M6.33301 9.1667C6.33301 9.81336 6.83302 10.3334 7.44635 10.3334H8.69967C9.233 10.3334 9.66634 9.88003 9.66634 9.31336C9.66634 8.7067 9.39968 8.4867 9.00635 8.3467L6.99967 7.6467C6.60634 7.5067 6.33968 7.29337 6.33968 6.68003C6.33968 6.12003 6.773 5.66003 7.30634 5.66003H8.55967C9.17301 5.66003 9.67301 6.18003 9.67301 6.8267" stroke="#292D32" stroke-linecap="round" stroke-linejoin="round"/>
<path d="M8 5V11" stroke="#292D32" stroke-linecap="round" stroke-linejoin="round"/>
<path d="M14.6663 8.00004C14.6663 11.68 11.6797 14.6667 7.99967 14.6667C4.31967 14.6667 1.33301 11.68 1.33301 8.00004C1.33301 4.32004 4.31967 1.33337 7.99967 1.33337" stroke="#292D32" stroke-linecap="round" stroke-linejoin="round"/>
<path d="M14.6667 4.00004V1.33337H12" stroke="#292D32" stroke-width="1.5" stroke-linecap="round" stroke-linejoin="round"/>
<path d="M11.333 4.66671L14.6663 1.33337" stroke="#292D32" stroke-linecap="round" stroke-linejoin="round"/>
</svg>
